<svg width="16" height="17" viewBox="0 0 16 17" fill="none" xmlns="http://www.w3.org/2000/svg">
<path d="M5.33301 8.10005C5.33301 8.61338 5.73301 9.03338 6.21967 9.03338H7.21967C7.64634 9.03338 7.99301 8.66672 7.99301 8.22005C7.99301 7.73338 7.77967 7.56005 7.46634 7.44672L5.86634 6.88672C5.54634 6.77338 5.33301 6.60005 5.33301 6.11338C5.33301 5.66672 5.67967 5.30005 6.10634 5.30005H7.10634C7.59967 5.30672 7.99967 5.72005 7.99967 6.23338" stroke="#D4D2DE" stroke-width="1.5" stroke-linecap="round" stroke-linejoin="round"/>
<path d="M6.66699 9.06665V9.55998" stroke="#D4D2DE" stroke-width="1.5" stroke-linecap="round" stroke-linejoin="round"/>
<path d="M6.66699 4.77344V5.29344" stroke="#D4D2DE" stroke-width="1.5" stroke-linecap="round" stroke-linejoin="round"/>
<path d="M6.65967 12.4866C9.60151 12.4866 11.9863 10.1018 11.9863 7.15992C11.9863 4.21808 9.60151 1.83325 6.65967 1.83325C3.71784 1.83325 1.33301 4.21808 1.33301 7.15992C1.33301 10.1018 3.71784 12.4866 6.65967 12.4866Z" stroke="#D4D2DE" stroke-width="1.5" stroke-linecap="round" stroke-linejoin="round"/>
<path d="M8.65332 13.7534C9.25332 14.6001 10.2333 15.1534 11.3533 15.1534C13.1733 15.1534 14.6533 13.6734 14.6533 11.8534C14.6533 10.7467 14.1067 9.76675 13.2733 9.16675" stroke="#D4D2DE" stroke-width="1.5" stroke-linecap="round" stroke-linejoin="round"/>
</svg>
