<svg width="30" height="28" viewBox="0 0 30 28" fill="none" xmlns="http://www.w3.org/2000/svg">
<path d="M14.5711 0.788932C13.5527 0.0310729 12.2726 -0.193765 11.0568 0.170885L2.83311 2.63794C1.13894 3.14651 0 4.67604 0 6.44553V24.0224C0 25.2916 0.583888 26.4539 1.60214 27.2105C2.62059 27.9685 3.90214 28.1932 5.11648 27.8286L11.2555 25.9864C11.0635 25.3533 10.9663 24.6926 10.9663 24.0224V16.0399C10.9663 14.3637 11.5776 12.7627 12.6905 11.5347C13.5073 10.63 14.567 9.96257 15.7512 9.60623L16.1733 9.48565V3.97838C16.1733 2.70915 15.5894 1.54688 14.571 0.788932H14.5711Z" fill="#6C5DD3"/>
<path d="M29.8794 13.5727V21.5552C29.8794 23.3233 28.7418 24.8543 27.0463 25.3614L18.8226 27.8286C18.4416 27.9437 18.0538 27.9999 17.67 27.9999C16.8297 27.9999 16.0074 27.7313 15.3083 27.2104C14.9889 26.972 14.7121 26.6965 14.4845 26.3881C14.2077 26.018 14.0007 25.6055 13.8705 25.1627C13.8691 25.1627 13.8678 25.1627 13.8664 25.164L13.8691 25.1613C13.7636 24.7981 13.7061 24.4157 13.7061 24.0223V16.0399C13.7061 15.2202 13.95 14.4513 14.3805 13.8126C14.8108 13.1738 15.4276 12.664 16.1732 12.3611C16.2925 12.3131 16.4145 12.2691 16.5393 12.2323L17.5453 11.9307L24.7631 9.76512C25.9787 9.40047 27.259 9.62531 28.2773 10.3833C29.2957 11.1412 29.8795 12.3035 29.8795 13.5727H29.8794Z" fill="#6C5DD3"/>
</svg>
